<svg id="Layer_1" height="32" width="32" xmlns="http://www.w3.org/2000/svg" viewBox="0 0 156.364 147.239">
<style>.st0{fill:#DEDEDE;} .st1{fill:#3E295E;} .st2{fill:#429946;} .st3{fill:#F5EB30;} .st4{fill:#FFFFFF;}</style>
<path class="st0" d="M151.88 56.476c-1.414-2.65-5.074-2.855-7.667-2.558-11.8 1.356-20.207 14.104-20.207 14.104s-13.83 2.71-17.222 2.98c-4.938.395-4.696-1.64-6.953-5.203-1.845-2.916-5.343-3.45-8.636-3.164l-1.176-8.208s6.764-5.107 6.9-10.904c.14-5.797-4.968-7.454-4.968-7.454s-1.104-17.667-12.284-20.014c-11.18-2.347-16.865 2.07-16.865 2.07S38.26 7.223 27.217 23.233c0 0-20.15 4.002-21.945 18.357S2.924 62.02 8.445 68.368c5.522 6.35 7.453 7.868 12.284 7.454 4.83-.414 7.868-2.07 7.868-2.07s3.313 5.705 5.52 16.172c.464 2.195.837 3.95 1.146 5.39-.135.673-.263 1.347-.37 2.025-1.355 8.44 3.926 15.513 6.782 22.82 1.796 4.595 3.73 10.43 8.435 12.77 3.662 1.823 7.532 3.78 11.466 4.933 5.15 1.51 10.515 2.78 15.854 2.93 8.32.237 15.175-2.154 20.8-8.296 4.277-4.672 6.06-9.466 8.136-15.394 1.82-5.202 4.67-8.08 8.578-11.982 2.052-2.048 3.305-4.728 5.317-6.804 2.45-2.526 5.75-3.797 8.806-5.4 3.436-1.802 6.442-4.252 9.59-6.49 2.555-1.813 5.194-3.6 7.192-6.05 2.16-2.65 3.54-5.915 4.672-9.11.756-2.13 1.47-4.095 1.684-6.355.252-2.7 1.034-5.884-.325-8.434z"/><path class="st1" d="M66.702 61.04c-.728-.047-1.46-.043-2.2.028-17.494 1.684-27.972 16.824-30.61 33.27-1.354 8.44 3.927 15.514 6.783 22.82 1.796 4.596 3.73 10.432 8.435 12.772 3.663 1.822 7.533 3.778 11.467 4.932 5.15 1.51 10.515 2.78 15.854 2.93 8.32.237 15.176-2.154 20.8-8.296 4.278-4.672 6.062-9.466 8.137-15.394 1.82-5.202 4.67-8.08 8.578-11.982 2.052-2.05 3.305-4.73 5.317-6.805 2.448-2.526 5.75-3.797 8.805-5.4 3.436-1.802 6.442-4.252 9.59-6.49 2.555-1.813 5.194-3.6 7.192-6.05 2.16-2.65 3.538-5.915 4.67-9.11.757-2.13 1.47-4.095 1.685-6.355.253-2.7 1.035-5.883-.324-8.434-1.412-2.65-5.072-2.855-7.665-2.558-11.8 1.356-20.207 14.104-20.207 14.104s-13.83 2.71-17.222 2.98c-4.938.395-4.696-1.64-6.953-5.203-2.456-3.88-7.835-3.542-11.767-2.67-3.952.878-6.51 3.43-10.766 2.793-3.228-.484-6.35-1.677-9.598-1.883z"/><path class="st2" d="M122.172 73.844c1.235-.06 3.026 1.33 4.103 1.856.632.31 1.008.62 1.195.928 8.83-8.175 15.614-8.482 18.786-7.98 3.725-9.845 2.934-19.953-9.012-13.257l-.272.16c1.093.748 1.49 2.95.87 5.312-.704 2.673-2.443 4.535-3.888 4.155-1.442-.38-2.042-2.856-1.34-5.53.136-.517.313-1 .515-1.448-8.647 6.36-11.073 13.76-11.073 13.76l-.407-4.34s-2.847 1.763-18.713 2.577c-4.932.253-11.146.986-15.48 3.52-4.174 2.445-7.112 6.507-11.534 8.618-3.736 1.783-6.882 2.527-10.89 1.23-4.296-1.388-7.913-4.085-12.62-1.597 4.373-4.87 14.198-5.665 20.23-4.686 2.81.456 5.72 1.392 8.327-.592 1.598-1.214 2.43-3.564 1.648-5.474-.943-2.306-2.796-1.986-4.848-2.487-5.046-1.236-9.41-4.076-14.828-3.01-7.094 1.398-13.462 6.455-17.86 12.017-3.2 4.043-3.898 7.712-5.005 12.502-1.3 5.628-2.495 11.34.075 16.84 4.882 10.44 21.426 16.54 34.035 6.914 0 0-2.304 4.747-9.627 6.78 0 0 19.935-1.084 29.833-7.052 9.898-5.965 17.087-15.458 17.087-15.458s-10.035 3.39-18.035 8.95c0 0 11.796-9.084 18.035-11.933 5.927-2.705 28.495-15.084 33.983-24.802-1.622-.343-5.134-.505-10.236 2.422-.385.22-.75.44-1.1.657.216 1.044.373 3.113.36 3.333-.066 1.153-.026 2.827-.742 3.812-1.873 2.58-2.362-2.594-4.334-3.738-3.3 2.632-6.462 5.262-14.678 8.322-.96.358-2.027.75-3.16 1.164-.098 1.045-.358 2.52-.412 2.69-.328 1.042-.68 2.583-1.565 3.32-2.22 1.847-1.616-2.536-2.92-4.227-4.236 1.537-8.995 3.263-13.613 4.987-.092 1.048-.363 2.592-.42 2.767-.327 1.042-.68 2.584-1.563 3.32-2.223 1.85-1.615-2.55-2.928-4.235-8.307 3.18-15.25 6.1-16.373 7.474-2.373 2.9.658 8.17-2.637 8.566-3.294.394-2.238-4.217-2.238-4.217.79-4.69 6.513-8.29 14.223-11.447.104-2.127-2.224-5.385.5-4.856 1.213.236 2.617 2.017 3.535 2.788.152.128.278.25.394.368 4.407-1.595 9.216-3.104 14-4.62.635-2.057-2.372-5.958.587-5.382 1.214.235 2.618 2.014 3.537 2.786.442.372.72.702.864 1l.16-.054-.09-.03c.205-.035.4-.093.603-.137 6.503-2.13 12.617-4.35 17.194-6.918 2.163-2.013-3.774-6.21-.238-6.388z"/><path class="st3" d="M145.464 70.32c-1.035-.218-2.842-.36-5.338.324-1.963.78-3.838 1.642-5.676 2.564-.104.063-.22.13-.323.193.217 1.045.374 3.114.362 3.334-.068 1.153-.028 2.827-.744 3.812-1.873 2.58-2.362-2.594-4.334-3.738-3.3 2.632-6.463 5.262-14.68 8.322-.96.358-2.026.75-3.16 1.164-.097 1.045-.357 2.52-.41 2.69-.33 1.042-.682 2.583-1.566 3.32-2.22 1.847-1.616-2.536-2.92-4.227-4.236 1.537-8.995 3.263-13.613 4.987-.092 1.048-.363 2.592-.42 2.767-.327 1.043-.68 2.585-1.563 3.32-2.222 1.852-1.614-2.548-2.927-4.234-8.307 3.18-15.25 6.1-16.373 7.474-2.372 2.9.66 8.17-2.636 8.566-2.132.254-2.44-1.583-2.394-2.915-3.27 2.317-11.832 3.35-9.292 10.45 5.505.64 11.46-.63 16.73-4.653 0 0-2.305 4.747-9.628 6.78 0 0 19.935-1.084 29.833-7.052 9.898-5.965 17.087-15.458 17.087-15.458s-10.035 3.39-18.035 8.95c0 0 11.796-9.084 18.035-11.933 5.927-2.706 28.496-15.084 33.984-24.803z"/><path class="st4" d="M66.603 82.34c-1.413-.11-2.774-.54-3.853-1.415-.472-.382-1.164-1.098-.883-1.796.357-.89 1.784-.542 2.544-.49 1.52.104 1.832 1.52 3.02 2.403-.014-.01.64-1.887.812-2.03.715-.598 2.638-.13 3.47-.026 2.864.353 1.212 2.082-.413 2.677-1.407.513-3.086.8-4.697.676z"/><path class="st2" d="M91.46 69.846c-1.336.514-5.14 3.388-5.08.5.033-1.64.93-3.656 1.774-5.042 1.322-2.166 4.396-2.852 6.715-1.954 1.625.63 4.155 2.936 2.467 4.61-1.485 1.475-3.997 1.163-5.877 1.886z"/><path class="st4" d="M45.2 119.012c.256 5.162 4.188 9.264 8.967 10.77 8.833 2.783 24.802 5.444 24.802 5.444s-1.21-5.93-4.357-8.833c-2.522-2.33-7.22-2.294-10.41-2.678-4.458-.537-8.8-1.62-13.14-2.8-1.92-.523-3.93-1.637-5.863-1.903zM81.75 134.63s-.24-8.6 3.51-10.416c3.752-1.815 12.827-6.533 16.577-10.405 0 0-1.444 8.953-8.405 14.397-6.96 5.445-11.68 6.422-11.68 6.422z"/><path class="st1" d="M90.48 61.636L89.02 51.428s6.764-5.107 6.9-10.904c.14-5.797-4.968-7.454-4.968-7.454s-1.104-17.667-12.284-20.014c-11.18-2.347-16.865 2.07-16.865 2.07S37.26 4.223 26.217 20.233c0 0-20.15 4.002-21.945 18.357S1.924 59.02 7.445 65.368c5.522 6.35 7.453 7.868 12.284 7.454 4.83-.414 7.868-2.07 7.868-2.07s3.313 5.705 5.52 16.172C35.325 97.39 35.6 98.358 35.6 98.358s.553-21.532 16.15-29.814c15.597-8.282 20.98-3.865 25.534-1.933 4.555 1.934 6.625 3.53 6.625 3.53l2.468-4.633 2.362-2.54 1.74-1.33z"/><path class="st4" d="M43.055 48.685c-1.395.763-2.134.356-2.712 2.11-.37 1.123-.53 2.59-.365 3.768.318 2.28 1.528 4.4 1.635 6.684-.036-.783-2.608-2.474-3.205-2.886-1.158-.797-2.676-1.674-4.146-1.378-3.14.633-4.528 7.005-5 9.705l1.345 2.315c.13.22 2.812 4.902 5.02 13.385 2.544-6.263 6.93-12.904 14.493-16.92 6.66-3.537 12.283-5.256 17.186-5.256 4.55 0 7.685 1.485 9.975 2.57.472.222.924.437 1.367.625 1.566.665 2.87 1.296 3.922 1.854l.952-1.792 2.873-3.088.354-.27-1.47-10.222c-2.667-2.9-13.55-10.08-14.312-2.432-.186 1.865.625 4.276-.165 5.89-.583-.473-.783-1.346-1.105-2.058-.81-1.787-1.934-3.403-3.28-4.84-6.006-6.4-17.004-1.245-23.363 2.237z"/><path class="st4" d="M89.877 36.38l-2.245-.733-.155-2.354c-.01-.15-1.22-15.087-9.524-16.83-3.044-.64-10.046-1.916-9.496 3.15.183 1.68.97 3.264 1.39 4.89.062.242.26 4.162-.148 3.83-.497-.404-.67-1.038-.967-1.602-.75-1.415-1.63-2.646-2.664-3.876-4.993-5.943-14.063-7.872-21.455-7.872-2.623 0-12.726.587-10.867 5.26.616 1.552 2.585 2.56 3.956 3.306.82.446 3.144 2.112 4.068 2.044-.972.07-2.138-.355-3.13-.49-2.767-.375-5.446-.847-8.257-.973-3.1-.14-6.603.092-9.53 1.238-1.472.576-2.798 1.59-4.252 2.233-1.44.636-2.852 1.807-4.02 2.844-2.53 2.246-4.433 5.17-4.858 8.578-1.775 14.19-2.123 18.923 2.346 24.062 4.85 5.576 6.06 6.32 8.294 6.32.32 0 .67-.017 1.067-.05 3.542-.305 8.053-1.998 6.815-6.61-.384-1.43-1.085-2.77-2.1-3.864-1.082-1.166-3.813-2.152-4.407-3.43 3.335.31 6.645.636 9.972-.427 1.408-.45 2.868-1.26 3.858-2.323 1.45-1.56 2.352-3.152 4.074-4.53 1.82-1.458 3.795-2.718 5.883-3.754 2.87-1.423 5.793-2.432 8.927-2.715 3.12-.28 6.26-2.895 6.444-6.15.125-2.188-.778-4.78-2.688-5.944 2.808 1.504 5.895 1.83 6.308 5.672.12 1.117-.56 2.253-.716 3.343-.3 2.072.926 1.43 2.384 1.267 1.6-.18 3.226.015 4.827.085 1.992.087 3.988.395 5.933.862 2.22.534 4.412 1.443 6.747 1.145 1.214-.156 4.643-1.79 4.678-3.378-.04 1.768-1.085 3.543-2.492 4.645-.595.466-2.57 1.22-2.376 2.193.106.525 1.412 1.026 1.823 1.31 1.027.707 1.98 1.577 2.86 2.457l.737-.557c1.77-1.336 5.445-5.1 5.52-8.21.07-2.946-2.17-3.913-2.563-4.06z"/>
</svg>
